<svg width="24" height="24" viewBox="0 0 24 24" fill="none" xmlns="http://www.w3.org/2000/svg">
<path d="M20.8421 4.60987C20.3313 4.09888 19.7249 3.69352 19.0574 3.41696C18.39 3.14039 17.6746 2.99805 16.9521 2.99805C16.2296 2.99805 15.5142 3.14039 14.8467 3.41696C14.1793 3.69352 13.5728 4.09888 13.0621 4.60987L12.0021 5.66987L10.9421 4.60987C9.91038 3.57818 8.51111 2.99858 7.05207 2.99858C5.59304 2.99858 4.19376 3.57818 3.16207 4.60987C2.13038 5.64156 1.55078 7.04084 1.55078 8.49987C1.55078 9.95891 2.13038 11.3582 3.16207 12.3899L4.22207 13.4499L12.0021 21.2299L19.7821 13.4499L20.8421 12.3899C21.3531 11.8791 21.7584 11.2727 22.035 10.6052C22.3115 9.93777 22.4539 9.22236 22.4539 8.49987C22.4539 7.77738 22.3115 7.06198 22.035 6.39452C21.7584 5.72706 21.3531 5.12063 20.8421 4.60987V4.60987Z" stroke="#DEDBDB" stroke-width="2" stroke-linecap="round" stroke-linejoin="round"/>
</svg>
