<svg width="90" height="56" fill="none" xmlns="http://www.w3.org/2000/svg"><path fill="#F05A00" d="M16 31v16H0V31z"/><path d="M32.16 36.2h-2.88c-1.088 0-1.92.296-2.496.888-.576.576-.864 1.44-.864 2.592V47h-3.36v-7.32c0-1.632.512-2.896 1.536-3.792 1.04-.912 2.528-1.368 4.464-1.368h3.6v1.68zm7.904 9.72c.512 0 .992-.096 1.44-.288.448-.192.84-.488 1.176-.888.336-.416.6-.952.792-1.608.208-.656.312-1.448.312-2.376 0-.928-.104-1.72-.312-2.376-.192-.656-.456-1.184-.792-1.584a3.05 3.05 0 0 0-1.176-.912 3.617 3.617 0 0 0-1.44-.288c-.512 0-.992.096-1.44.288a3.05 3.05 0 0 0-1.176.912c-.336.4-.608.928-.816 1.584-.192.656-.288 1.448-.288 2.376 0 .928.096 1.72.288 2.376.208.656.48 1.192.816 1.608.336.4.728.696 1.176.888.448.192.928.288 1.44.288zm0-11.88c1.072 0 2.056.152 2.952.456.912.288 1.688.72 2.328 1.296.64.56 1.136 1.264 1.488 2.112.368.832.552 1.784.552 2.856 0 1.088-.184 2.048-.552 2.88a5.882 5.882 0 0 1-1.488 2.112c-.64.56-1.416.984-2.328 1.272-.896.304-1.88.456-2.952.456-1.088 0-2.08-.152-2.976-.456-.896-.288-1.664-.712-2.304-1.272a6.143 6.143 0 0 1-1.512-2.112c-.352-.832-.528-1.792-.528-2.88 0-1.072.176-2.024.528-2.856.368-.848.872-1.552 1.512-2.112.64-.576 1.408-1.008 2.304-1.296.896-.304 1.888-.456 2.976-.456zM56.87 45.92c.512 0 .992-.096 1.44-.288.448-.192.84-.488 1.176-.888.336-.416.6-.952.792-1.608.208-.656.312-1.448.312-2.376 0-.928-.104-1.72-.312-2.376-.192-.656-.456-1.184-.792-1.584a3.05 3.05 0 0 0-1.176-.912 3.617 3.617 0 0 0-1.44-.288c-.512 0-.992.096-1.44.288a3.05 3.05 0 0 0-1.176.912c-.336.4-.608.928-.816 1.584-.192.656-.288 1.448-.288 2.376 0 .928.096 1.72.288 2.376.208.656.48 1.192.816 1.608.336.4.728.696 1.176.888.448.192.928.288 1.44.288zm0-11.88c1.072 0 2.056.152 2.952.456.912.288 1.688.72 2.328 1.296.64.56 1.136 1.264 1.488 2.112.368.832.552 1.784.552 2.856 0 1.088-.184 2.048-.552 2.88a5.882 5.882 0 0 1-1.488 2.112c-.64.56-1.416.984-2.328 1.272-.896.304-1.88.456-2.952.456-1.088 0-2.08-.152-2.976-.456-.896-.288-1.664-.712-2.304-1.272a6.143 6.143 0 0 1-1.512-2.112c-.352-.832-.528-1.792-.528-2.88 0-1.072.176-2.024.528-2.856.368-.848.872-1.552 1.512-2.112.64-.576 1.408-1.008 2.304-1.296.896-.304 1.888-.456 2.976-.456z" fill="#fff"/><path d="M66.953 34.52h12.48c2.288 0 3.976.416 5.064 1.248 1.104.816 1.656 2.04 1.656 3.672V47h-3.36v-7.56c0-1.152-.288-1.976-.864-2.472-.576-.512-1.408-.768-2.496-.768h-1.2V47h-3.36V36.2h-4.56V47h-3.36V34.52zM5.16 24H1.68V7.2h3.48V24z" fill="#F05A00"/><path d="M21.724 24h-3.36v-7.56c0-1.152-.288-1.976-.864-2.472-.576-.512-1.408-.768-2.496-.768h-3.12V24h-3.36V11.52h6.48c2.288 0 3.976.416 5.064 1.248 1.104.816 1.656 2.04 1.656 3.672V24zm6.11-9.84c0 .368.16.704.48 1.008.335.304.895.568 1.68.792l3.72 1.08c1.151.336 2.04.792 2.663 1.368.624.576.936 1.32.936 2.232 0 .576-.12 1.104-.36 1.584-.24.464-.632.864-1.176 1.2-.544.336-1.248.592-2.112.768-.864.192-1.928.288-3.192.288-.656 0-1.304-.048-1.944-.144a15.562 15.562 0 0 1-1.8-.384 14.082 14.082 0 0 1-1.536-.576 8.207 8.207 0 0 1-1.2-.696l.96-1.44c.672.416 1.456.784 2.352 1.104.912.304 1.968.456 3.168.456 1.2 0 2.04-.16 2.52-.48.48-.32.72-.72.72-1.2 0-.368-.168-.696-.504-.984-.336-.304-.928-.576-1.776-.816l-3.72-1.08c-1.024-.304-1.864-.736-2.52-1.296-.64-.576-.96-1.344-.96-2.304 0-.512.112-.984.336-1.416.24-.448.608-.832 1.104-1.152.496-.32 1.128-.568 1.896-.744.768-.192 1.696-.288 2.784-.288 1.328 0 2.528.184 3.6.552 1.088.352 1.968.768 2.64 1.248l-.96 1.44c-.656-.416-1.4-.776-2.232-1.08-.832-.32-1.848-.48-3.048-.48-.848 0-1.48.136-1.896.408-.416.272-.624.616-.624 1.032zm12.496-.96h-2.28v-1.68h2.28V7.68h3.36v3.84h3.72v1.68h-3.72v6.24c0 .608.064 1.128.192 1.56.144.416.328.76.552 1.032a2.376 2.376 0 0 0 1.776.768c.48 0 .944-.072 1.392-.216a6.91 6.91 0 0 0 1.128-.504l.72 1.56c-.48.24-1.032.44-1.656.6-.608.16-1.216.24-1.824.24-1.808 0-3.2-.448-4.176-1.344-.976-.896-1.464-2.128-1.464-3.696V13.2z" fill="#fff"/></svg>